HIERARCHY
ROOT Hips
{
  OFFSET 0 0 0
  CHANNELS 6 Xposition Yposition Zposition Zrotation Yrotation Xrotation
  JOINT LeftThigh
  {
    OFFSET 8.409438 0 -5.917753
    CHANNELS 3 Zrotation Yrotation Xrotation
    JOINT LeftLeg
    {
      OFFSET 0 0 -42.358652
      CHANNELS 3 Zrotation Yrotation Xrotation
      JOINT LeftFoot
      {
        OFFSET 0 0 -39.357303
        CHANNELS 3 Zrotation Yrotation Xrotation
      }
    }
  }
  JOINT RightThigh
  {
    OFFSET -8.409438 0 -5.917753
    CHANNELS 3 Zrotation Yrotation Xrotation
    JOINT RightLeg
    {
      OFFSET 0 0 -42.358652
      CHANNELS 3 Zrotation Yrotation Xrotation
      JOINT RightFoot
      {
        OFFSET 0 0 -39.357303
        CHANNELS 3 Zrotation Yrotation Xrotation
      }
    }
  }
  JOINT SpineLow
  {
    OFFSET 0 0 4.719101
    CHANNELS 3 Zrotation Yrotation Xrotation
    JOINT SpineMid
    {
      OFFSET 0 0 12.899191
      CHANNELS 3 Zrotation Yrotation Xrotation
      JOINT Chest
      {
        OFFSET 0 0 12.899191
        CHANNELS 3 Zrotation Yrotation Xrotation
        JOINT LeftShoulder
        {
          OFFSET 7.550562 1.41573 9.438202
          CHANNELS 3 Zrotation Yrotation Xrotation
          JOINT LeftArm
          {
            OFFSET 9.155056 0 4.247191
            CHANNELS 3 Zrotation Yrotation Xrotation
            JOINT LeftForearm
            {
              OFFSET 0 0 25.771955
              CHANNELS 3 Zrotation Yrotation Xrotation
              JOINT LeftHand
              {
                OFFSET 0 0 25.197169
                CHANNELS 3 Zrotation Yrotation Xrotation
              }
            }
          }
        }
        JOINT RightShoulder
        {
          OFFSET -7.550562 1.41573 9.438202
          CHANNELS 3 Zrotation Yrotation Xrotation
          JOINT RightArm
          {
            OFFSET -9.155056 0 4.247191
            CHANNELS 3 Zrotation Yrotation Xrotation
            JOINT RightForearm
            {
              OFFSET 0 0 -25.771955
              CHANNELS 3 Zrotation Yrotation Xrotation
              JOINT RightHand
              {
                OFFSET 0 0 -25.197169
                CHANNELS 3 Zrotation Yrotation Xrotation
              }
            }
          }
        }
        JOINT Neck
        {
          OFFSET 0 0 15.101124
          CHANNELS 3 Zrotation Yrotation Xrotation
          JOINT Head
          {
            OFFSET 0 0 11.325843
            CHANNELS 3 Zrotation Yrotation Xrotation
            End Site
            {
              OFFSET 0 0 14.157303
            }
          }
        }
      }
    }
  }
}
MOTION
Frames: 8
Frame Time: 0.01
0.0  101.685394  0.0  -4.644762  -11.818441  -102.02942  31.915632  -26.031336  4.036815  -4.912413  5.70947  25.088487  10.206861  3.569506  5.105376  -2.521803  8.691253  2.034349  4.20346  0.880951  14.253474  8.188671  3.511964  -1.121511  -2.108203  -1.051079  1.651686  -5.834334  -2.725015  4.604813  -5.834334  -2.725015  4.604813  -3.590896  -6.456869  9.606629  -14.140622  52.189564  30.593768  -15.873983  -41.196456  73.588397  97.027088  15.541753  -40.361992  10.514221  -15.974461  25.773128  78.769662  27.295744  36.678022  -8.976336  11.078264  -93.21079  73.594367  44.789204  50.003846  11.685075  -3.207642  1.888682  8.771529  -2.370679  1.47818  
0.0  101.685394  0.0  -4.7722  -11.36344  -101.961986  31.613295  -25.996566  3.803184  -5.692304  6.071853  24.815312  10.714453  3.425779  5.267198  -3.09599  8.755936  2.065435  4.088597  0.911984  13.936926  8.379101  3.264492  -1.126274  -2.400704  -1.214816  1.497073  -6.639135  -3.16675  4.211035  -6.639136  -3.16675  4.211035  -4.115332  -6.057501  10.493513  -17.213111  48.821909  26.043849  -5.523693  -40.725192  66.442407  96.777458  15.881813  -35.901209  9.448755  -13.746147  27.263979  74.458726  25.495371  35.68693  -7.403935  7.673908  -93.311296  75.578901  48.838714  52.615477  11.687665  -3.149448  2.61679  8.777219  -2.313102  2.02327  
0.0  101.685394  0.0  -4.859311  -10.89692  -101.765193  31.273062  -25.766413  3.508931  -5.656926  6.021596  24.948648  10.602325  3.330221  5.222927  -3.986406  8.855208  1.852843  4.383584  0.949868  13.721021  8.446084  3.016369  -1.111518  -2.568266  -1.33933  1.613624  -7.112021  -3.482939  4.551097  -7.112021  -3.482939  4.551097  -5.217953  -6.632705  8.937691  -16.798571  46.158919  25.140413  0.720734  -32.794781  62.295191  96.293932  15.58603  -39.685337  8.858448  -11.946037  26.190971  70.010951  23.494225  34.682701  -7.961927  6.67293  -93.926328  77.019536  49.673217  52.293984  11.50979  -2.921441  2.182626  8.641036  -2.150916  1.692398  
0.0  101.685394  0.0  -5.007814  -10.50479  -101.578862  30.839798  -25.567728  3.24881  -5.37373  5.86349  25.119868  10.488013  3.267932  5.231849  -5.009582  8.807552  1.639223  4.895299  1.028762  13.507058  8.87086  2.681407  -1.028534  -2.764911  -1.287626  1.756197  -7.652512  -3.311449  4.944198  -7.652512  -3.311449  4.944198  -4.792643  -8.85389  7.853388  -13.617905  43.515606  26.916192  -1.668485  -24.848835  59.890387  101.834654  13.810141  -40.166939  8.941583  -11.490425  25.140445  66.147451  21.432788  33.7665  -9.186814  9.766835  -93.28941  76.853614  49.928313  51.356651  11.854281  -3.013112  1.527513  8.896257  -2.23122  1.204412  
0.0  101.685394  0.0  -5.192313  -10.289123  -101.446896  30.484555  -25.465869  3.122295  -5.074882  5.667145  25.193902  10.289864  3.283466  5.192239  -6.007803  8.717397  1.507862  5.586771  1.142068  13.219546  8.872669  2.513779  -1.025111  -3.01283  -1.239242  1.77456  -8.327026  -3.158253  4.999781  -8.327026  -3.158253  4.999781  -3.300749  -10.822947  8.430442  -11.530943  40.910166  27.382053  -3.533245  -21.864082  57.144878  107.002958  12.356861  -37.994163  9.203846  -11.543054  25.626392  63.628629  19.713349  32.978674  -10.476521  14.710046  -93.186992  74.758104  50.013026  50.291844  12.795458  -2.79868  1.322378  9.600791  -2.072412  1.050784  
0.0  101.685394  0.0  -5.11344  -10.845101  -101.459295  30.746142  -25.306032  3.283259  -4.66256  5.424469  25.221753  10.193705  3.349739  5.174945  -6.142602  8.742821  1.550104  6.241032  1.241481  12.820976  8.921787  2.381147  -1.030315  -3.172468  -1.334159  1.768487  -8.771114  -3.405464  5.00347  -8.771114  -3.405464  5.003469  -1.908625  -10.78401  9.290624  -10.841592  39.315164  26.464292  -2.118239  -21.358885  54.256143  106.527369  11.705332  -37.949461  9.284977  -10.793925  26.710805  62.509943  18.275482  32.363156  -10.893583  18.476573  -93.577104  72.620282  50.524571  49.424515  13.9909  -1.812816  1.355622  10.496379  -1.329406  1.058815  
0.0  101.685394  0.0  -4.884156  -11.287789  -101.246955  30.919451  -24.885176  3.391143  -4.50994  5.338048  25.052765  10.305641  3.395046  5.16549  -6.18742  8.947167  1.380361  6.60369  1.326689  12.354952  8.943557  2.303463  -1.054402  -3.184174  -1.45978  1.766402  -8.813746  -3.747256  5.015795  -8.813746  -3.747256  5.015795  -1.463645  -9.740952  9.415408  -12.32092  38.478048  24.659519  -2.083811  -20.104456  52.358296  105.173199  11.078448  -37.504415  8.139351  -9.962471  27.144434  62.781275  16.606713  32.034381  -11.220751  20.151761  -93.750936  71.408963  51.219326  48.53216  14.748294  -0.704179  1.240589  11.062562  -0.498534  0.948085  
0.0  101.685394  0.0  -4.603192  -12.032081  -100.90596  31.344826  -24.387351  3.428928  -4.384724  5.315727  24.844912  10.539166  3.427773  5.138191  -5.772661  9.12254  1.098984  6.708565  1.364241  11.894  8.965681  2.305662  -1.105123  -3.141044  -1.61813  1.838581  -8.713894  -4.172667  5.232438  -8.713894  -4.172667  5.232439  -0.684964  -8.600491  8.834719  -15.720166  38.681622  21.846083  -2.392534  -18.827509  51.734691  105.501203  10.541445  -36.783311  7.412882  -8.830038  26.785673  63.62771  14.515576  31.432565  -12.144272  21.23673  -93.019717  70.358982  51.820015  47.038717  15.790365  0.776025  1.197355  11.841127  0.613455  0.87864  
